#!OML:ASF E:\Style4\Style4.ASF
:FULLY-SPECIFIED
:DEGREES
2293
root -0.419112 18.1422 -0.973061 6.03563 -0.573897 0.162604
lowerback 9.56866 0.599145 -3.55783
upperback 3.27862 0.435666 -1.1294
thorax -1.9749 0.21143 0.783829
lowerneck -2.61611 3.98455 -2.46537
upperneck 14.0749 4.42029 8.94957
head 4.35139 2.53962 3.35434
rclavicle 3.18055e-015 -4.37326e-015
rhumerus 56.4845 -37.5395 -36.9987
rradius 39.3203
rwrist 10.4254
rhand 38.7792 2.12654
rfingers 7.12502
rthumb 61.3757 -10.1236
lclavicle 3.18055e-015 -4.37326e-015
lhumerus 82.0786 4.80957 32.3196
lradius 66.4068
lwrist 20.4522
lhand 32.7207 38.5947
lfingers 7.12502
lthumb 56.135 55.8793
rfemur -14.4811 0.194417 20.3906
rtibia 21.6563
rfoot -12.2523 -18.7043
rtoes -10.7661
lfemur -14.936 -1.91841 -16.2806
ltibia 22.3296
lfoot -13.6961 11.0536
ltoes -17.01
2294
root -0.434152 18.1469 -0.969606 6.14106 -0.325792 0.166869
lowerback 9.56084 0.728341 -3.4313
upperback 3.27797 0.616422 -1.22395
thorax -1.97644 0.302096 0.59494
lowerneck -2.93624 3.75974 -2.36072
upperneck 14.5065 4.08253 8.96342
head 4.55962 2.39475 3.34842
rclavicle -1.03368e-014 1.27222e-014
rhumerus 57.5263 -37.7068 -37.0731
rradius 39.5161
rwrist 10.5185
rhand 38.5643 2.19759
rfingers 7.12502
rthumb 61.1948 -10.2641
lclavicle -1.03368e-014 1.27222e-014
lhumerus 81.8106 5.86298 32.4431
lradius 66.3414
lwrist 20.6141
lhand 32.4094 38.4252
lfingers 7.12502
lthumb 55.8591 55.9237
rfemur -14.5064 0.182582 20.4398
rtibia 21.5871
rfoot -12.3232 -18.8334
rtoes -10.1579
lfemur -14.9248 -2.07542 -16.2109
ltibia 22.0249
lfoot -13.5476 11.0037
ltoes -16.8004
2295
root -0.448136 18.1508 -0.969467 6.24325 -0.12518 0.277208
lowerback 9.57247 0.889485 -3.40343
upperback 3.27391 0.828724 -1.34046
thorax -1.99253 0.408464 0.434843
lowerneck -2.97372 3.53284 -2.35253
upperneck 14.6165 3.76483 8.99838
head 4.61773 2.24528 3.3494
rclavicle 8.54774e-015 -4.37326e-015
rhumerus 58.5213 -37.7957 -37.0947
rradius 39.6524
rwrist 10.5088
rhand 38.2401 2.28755
rfingers 7.12502
rthumb 60.9209 -10.4882
lclavicle 8.54774e-015 -4.37326e-015
lhumerus 81.6184 6.83936 32.6147
lradius 66.0982
lwrist 20.7698
lhand 32.2571 38.2786
lfingers 7.12502
lthumb 55.7239 55.8804
rfemur -14.5696 0.141782 20.3682
rtibia 21.5442
rfoot -12.3066 -18.9385
rtoes -9.92586
lfemur -14.927 -2.17947 -16.2662
ltibia 21.7419
lfoot -13.3657 10.9316
ltoes -16.635
2296
root -0.460368 18.1549 -0.969112 6.38488 0.0636879 0.378728
lowerback 9.54433 1.0999 -3.26972
upperback 3.25927 1.11638 -1.501
thorax -1.99616 0.552637 0.161861
lowerneck -2.75352 3.2651 -2.54797
upperneck 14.3427 3.38752 9.37871
head 4.50597 2.06396 3.47361
rclavicle -1.90833e-014 1.86858e-014
rhumerus 59.0625 -37.8974 -36.6845
rradius 39.8558
rwrist 10.2906
rhand 37.8511 2.34363
rfingers 7.12502
rthumb 60.5912 -10.8007
lclavicle -1.90833e-014 1.86858e-014
lhumerus 81.6168 7.62497 32.9488
lradius 65.7102
lwrist 20.7155
lhand 32.5286 37.9896
lfingers 7.12502
lthumb 55.9648 55.4066
rfemur -14.6871 0.106091 20.2892
rtibia 21.5148
rfoot -12.3766 -18.987
rtoes -9.4596
lfemur -14.9756 -2.32842 -16.3198
ltibia 21.4942
lfoot -13.2287 10.9318
ltoes -16.6285
2297
root -0.471884 18.1597 -0.967508 6.48862 0.271334 0.402265
lowerback 9.54955 1.26631 -3.02316
upperback 3.24644 1.35454 -1.66889
thorax -2.00951 0.672583 -0.176934
lowerneck -2.72826 3.02989 -2.81676
upperneck 14.3189 3.02351 9.92901
head 4.49972 1.90311 3.67482
rclavicle -1.33186e-014 2.06736e-014
rhumerus 59.9045 -37.944 -36.6782
rradius 39.9391
rwrist 10.324
rhand 37.5178 2.52054
rfingers 7.12502
rthumb 60.3076 -10.9328
lclavicle -1.33186e-014 2.06736e-014
lhumerus 81.4996 8.40624 33.1493
lradius 65.4579
lwrist 20.6221
lhand 32.6827 38.0005
lfingers 7.12502
lthumb 56.1013 55.3114
rfemur -14.7744 0.0380727 20.3017
rtibia 21.5264
rfoot -12.5143 -19.0171
rtoes -8.87525
lfemur -14.9966 -2.48055 -16.2846
ltibia 21.2721
lfoot -13.0287 10.9175
ltoes -16.6738
2298
root -0.483429 18.163 -0.967541 6.55433 0.430746 0.464431
lowerback 9.65203 1.43453 -2.8421
upperback 3.21014 1.58354 -1.85234
thorax -2.09815 0.7885 -0.49714
lowerneck -2.87407 2.80031 -2.81035
upperneck 14.6202 2.67139 10.0981
head 4.6368 1.75143 3.72346
rclavicle -1.78906e-015 5.96354e-015
rhumerus 61.0866 -37.9549 -37.2886
rradius 40.0501
rwrist 10.7648
rhand 37.5902 2.90667
rfingers 7.12502
rthumb 60.3693 -10.48
lclavicle -1.78906e-015 5.96354e-015
lhumerus 81.2207 9.17564 33.1065
lradius 65.299
lwrist 20.4729
lhand 32.5446 38.0563
lfingers 7.12502
lthumb 55.9789 55.4623
rfemur -14.8572 -0.0666011 20.2815
rtibia 21.573
rfoot -12.5419 -19.0626
rtoes -8.83192
lfemur -14.9989 -2.56958 -16.2979
ltibia 21.0882
lfoot -12.847 10.9172
ltoes -16.7257
2299
root -0.493127 18.1649 -0.969744 6.64843 0.543509 0.561337
lowerback 9.71304 1.61977 -2.65719
upperback 3.2334 1.83887 -2.05287
thorax -2.09856 0.916441 -0.838747
lowerneck -2.86068 2.56516 -2.64334
upperneck 14.6162 2.34979 10.0304
head 4.65951 1.59972 3.66118
rclavicle -2.80286e-014 1.98785e-014
rhumerus 62.3461 -37.966 -37.9453
rradius 40.1654
rwrist 11.007
rhand 37.6063 2.97413
rfingers 7.12502
rthumb 60.383 -10.3977
lclavicle -2.80286e-014 1.98785e-014
lhumerus 81.0048 10.0117 33.069
lradius 65.1258
lwrist 20.3609
lhand 32.5824 38.1681
lfingers 7.12502
lthumb 56.0124 55.5482
rfemur -14.9982 -0.129367 20.2137
rtibia 21.658
rfoot -12.5707 -19.1046
rtoes -8.95079
lfemur -15.0623 -2.64085 -16.3639
ltibia 20.9443
lfoot -12.7404 10.9397
ltoes -16.6405
